<svg xmlns="http://www.w3.org/2000/svg" viewBox="0 0 64 64" width="64" height="64">
  <defs>
    <linearGradient id="grad1" x1="0%" y1="0%" x2="100%" y2="100%">
      <stop offset="0%" style="stop-color:#10b981;stop-opacity:1" />
      <stop offset="100%" style="stop-color:#059669;stop-opacity:1" />
    </linearGradient>
  </defs>
  
  <!-- Background circle -->
  <circle cx="32" cy="32" r="30" fill="url(#grad1)" stroke="#065f46" stroke-width="2"/>
  
  <!-- Certificate icon -->
  <rect x="16" y="18" width="32" height="24" rx="2" fill="white" stroke="#065f46" stroke-width="1.5"/>
  
  <!-- Certificate lines -->
  <line x1="20" y1="24" x2="44" y2="24" stroke="#10b981" stroke-width="2" stroke-linecap="round"/>
  <line x1="20" y1="28" x2="40" y2="28" stroke="#10b981" stroke-width="1.5" stroke-linecap="round"/>
  <line x1="20" y1="32" x2="42" y2="32" stroke="#10b981" stroke-width="1.5" stroke-linecap="round"/>
  
  <!-- Verification checkmark -->
  <circle cx="44" cy="20" r="6" fill="#059669" stroke="white" stroke-width="2"/>
  <path d="M41 20 L43 22 L47 18" stroke="white" stroke-width="2" fill="none" stroke-linecap="round" stroke-linejoin="round"/>
  
  <!-- Blockchain elements -->
  <rect x="12" y="46" width="8" height="6" rx="1" fill="#065f46" opacity="0.7"/>
  <rect x="22" y="46" width="8" height="6" rx="1" fill="#065f46" opacity="0.7"/>
  <rect x="32" y="46" width="8" height="6" rx="1" fill="#065f46" opacity="0.7"/>
  <rect x="42" y="46" width="8" height="6" rx="1" fill="#065f46" opacity="0.7"/>
  
  <!-- Connection lines -->
  <line x1="20" y1="49" x2="22" y2="49" stroke="#065f46" stroke-width="1" opacity="0.7"/>
  <line x1="30" y1="49" x2="32" y2="49" stroke="#065f46" stroke-width="1" opacity="0.7"/>
  <line x1="40" y1="49" x2="42" y2="49" stroke="#065f46" stroke-width="1" opacity="0.7"/>
</svg>